# xmcd
#
# Track frame offsets:
#	150
#	10951
#	29863
#	50048
#	67349
#	85916
#	103762
#	117983
#	131560
#	150648
#	162781
#	178509
#	195387
#	209971
#	230450
#	250808
#	266538
#	285134
#	302384
#	320794
#
# Disc length: 4508
#
# Revision: 6
# Processed by: cddbd v1.5.1PL0 Copyright (c) Steve Scherf et al.
# Submitted via: tcd 2.0b
# Normalized: r5:TDELIM( - )
#
DISCID=23119a14
DTITLE=Mixed
DYEAR=1900
DGENRE=
TTITLE0=Sarah Mclaghlan - Blackbird
TTITLE1=Nelly Furtado - Hey Man
TTITLE2=Fat Joe - What's Luv
TTITLE3=Sum41 - What We're All About
TTITLE4=Avril Lavigne - Complicated
TTITLE5=Brandy - What About Us
TTITLE6=Simple Plan - I'm Just a Kid
TTITLE7=Jackson 5 - I Want You Back
TTITLE8=Our Lady Peace - Somewhere Out There
TTITLE9=The Goops - Build Me up Buttercup
TTITLE10=Simple Plan - The Worst Day Ever
TTITLE11=Stroke 9 - Little Black Backpack
TTITLE12=Sum41 - It Makes No Difference
TTITLE13=The Calling - Adrienne
TTITLE14=Usher - You Don't Have to Call
TTITLE15=Velvet Empire - Frontin'
TTITLE16=Crush - Live
TTITLE17=Shakira - Underneath Your Clothes
TTITLE18=Usher - You Got it Bad
TTITLE19=John Mayer - No Such Thing
EXTD=\n
EXTT0=
EXTT1=
EXTT2=
EXTT3=
EXTT4=
EXTT5=
EXTT6=
EXTT7=
EXTT8=
EXTT9=
EXTT10=
EXTT11=
EXTT12=
EXTT13=
EXTT14=
EXTT15=
EXTT16=
EXTT17=
EXTT18=
EXTT19=
PLAYORDER=
